# xmcd
#
# Track frame offsets:
# 150
# 14074
# 27718
# 44052
# 56140
# 72762
# 85390
# 95285
# 106611
# 124545
# 140593
# 152892
# 167451
# 183147
# 199363
# 212834
# 223389
# 235434
# 246787
# 260869
#
# Disc length: 3668 seconds
#
#
# Revision: 0
# Processed by: cddbd v1.5.2PL0 Copyright (c) Steve Scherf et al.
# Submitted via: FreeRIP 2.942 
#
DISCID=340e5214
DTITLE=TEODORO and SAMPAIO - SELEÇÃO DE OURO
DYEAR=2006
DGENRE=SERTANEJO
TTITLE0=NAMORADA DO CARINHA
TTITLE1=MULHER CHORONA
TTITLE2=ANNA JULIA
TTITLE3=AQUI PRA ELA
TTITLE4=O TOCADOR
TTITLE5=É MENTIRA DELA
TTITLE6=SILICONE LÁ
TTITLE7=GARANHÃO DA MADRUGADA
TTITLE8=PAIXÃO PROIBIDA
TTITLE9=TOCO DE SAIA
TTITLE10=BRINQUINHO NA ORELHA
TTITLE11=APAIXONADO.COM
TTITLE12=SE A CASA CAIR
TTITLE13=TELEFONE NO AR
TTITLE14=SÓ TO COMENDO
TTITLE15=VOU BEBER DE NOVO
TTITLE16=ACONTECEU COMIGO
TTITLE17=O GAVIÃO
TTITLE18=ÁGUA NO LEITE
TTITLE19=A GOSTOSONA
EXTD=
EXTT0=
EXTT1=
EXTT2=
EXTT3=
EXTT4=
EXTT5=
EXTT6=
EXTT7=
EXTT8=
EXTT9=
EXTT10=
EXTT11=
EXTT12=
EXTT13=
EXTT14=
EXTT15=
EXTT16=
EXTT17=
EXTT18=
EXTT19=
PLAYORDER=
